<svg id="Capa_1" enable-background="new 0 0 512 512" viewBox="0 0 512 512" xmlns="http://www.w3.org/2000/svg"><g><path d="m466.5 421c-20.019 0-37.048 13.002-43.117 31h-123.766c-4.532-13.441-15.177-24.085-28.617-28.617v-32.383h165c8.284 0 15-6.716 15-15v-95.333h-390v95.333c0 8.284 6.716 15 15 15h165v32.722c-12.97 4.714-23.197 15.171-27.617 28.278h-124.766c-6.069-17.998-23.098-31-43.117-31-25.089 0-45.5 20.411-45.5 45.5s20.411 45.5 45.5 45.5c19.648 0 36.425-12.52 42.778-30h125.444c14.512 39.928 71.061 39.882 85.556 0h124.444c6.353 17.48 23.13 30 42.778 30 25.089 0 45.5-20.411 45.5-45.5s-20.411-45.5-45.5-45.5zm-330.5-70.167c-8.284 0-15-6.716-15-15s6.716-15 15-15 15 6.716 15 15-6.716 15-15 15zm45-15c0-8.284 6.716-15 15-15h180c8.284 0 15 6.716 15 15s-6.716 15-15 15h-180c-8.284 0-15-6.716-15-15z"/><path d="m451 15c0-8.284-6.716-15-15-15h-360c-8.284 0-15 6.716-15 15v95.333h390zm-315 55.167c-8.284 0-15-6.716-15-15s6.716-15 15-15 15 6.716 15 15-6.716 15-15 15zm240 0h-180c-8.284 0-15-6.716-15-15s6.716-15 15-15h180c8.284 0 15 6.716 15 15s-6.716 15-15 15z"/><path d="m451 140.333h-390v110.333h390zm-315 70.667c-8.284 0-15-6.716-15-15s6.716-15 15-15 15 6.716 15 15-6.716 15-15 15zm240 0h-180c-8.284 0-15-6.716-15-15s6.716-15 15-15h180c8.284 0 15 6.716 15 15s-6.716 15-15 15z"/></g></svg>